<svg width="37" height="37" viewBox="0 0 37 37" fill="none" xmlns="http://www.w3.org/2000/svg">
<path d="M18.5004 36C8.83477 36 1 28.1654 1 18.5005C1 8.83456 8.83477 1 18.5004 1C28.1652 1 36 8.83456 36 18.5005C36 28.1654 28.1652 36 18.5004 36V36Z" stroke="black" stroke-width="2" stroke-miterlimit="10"/>
<path d="M16.5889 26H19.6422V18.4362H21.7734L22 15.9038H19.6422C19.6422 15.9038 19.6422 14.9584 19.6422 14.4615C19.6422 13.8641 19.7635 13.6282 20.3475 13.6282C20.8168 13.6282 22 13.6282 22 13.6282V11C22 11 20.258 11 19.8853 11C17.6131 11 16.5887 11.9896 16.5887 13.8844C16.5887 15.5346 16.5887 15.9036 16.5887 15.9036H15V18.4679H16.5887V25.9998L16.5889 26Z" fill="black"/>
</svg>
