<svg width="37" height="37" viewBox="0 0 37 37" fill="none" xmlns="http://www.w3.org/2000/svg">
<path d="M18.5005 36C8.83456 36 1 28.1654 1 18.5005C1 8.83456 8.83456 1 18.5005 1C28.1654 1 36 8.83456 36 18.5005C36 28.1654 28.1654 36 18.5005 36Z" stroke="black" stroke-width="2" stroke-miterlimit="10"/>
<path d="M20.9879 18.0499H13.6988L13.7074 20.0474H18.6224C18.0413 22.4793 16.2475 23.9717 13.8391 23.9717C10.6803 23.9717 8.12027 21.5216 8.12027 18.5001C8.12027 15.4776 10.6803 13.0283 13.8391 13.0283C15.341 13.0283 16.7063 13.5828 17.7263 14.4889L19.3401 13.1582C17.9246 11.8237 15.9827 11 13.8388 11C9.50894 11 6 14.3572 6 18.5001C6 22.642 9.50894 26 13.8388 26C17.9965 26 21 22.9657 21 18.8238L20.9877 18.0502L20.9879 18.0499Z" fill="black"/>
<path d="M31 18.0325H27.9672V15H26.0325V18.0325H23V19.9675H26.0325V23H27.9672V19.9675H31V18.0325Z" fill="black"/>
</svg>
