<svg width="16" height="15" viewBox="0 0 16 15" fill="none" xmlns="http://www.w3.org/2000/svg">
<path d="M15.5234 6.76953C14.1523 4.07812 11.4102 2.25 8.3125 2.25C5.18945 2.25 2.44727 4.07812 1.07617 6.76953C1.02539 6.87109 1 6.99805 1 7.125C1 7.27734 1.02539 7.4043 1.07617 7.50586C2.44727 10.1973 5.18945 12 8.3125 12C11.4102 12 14.1523 10.1973 15.5234 7.50586C15.5742 7.4043 15.5996 7.27734 15.5996 7.15039C15.5996 6.99805 15.5742 6.87109 15.5234 6.76953ZM8.3125 10.7812C6.28125 10.7812 4.65625 9.15625 4.65625 7.125C4.65625 5.11914 6.28125 3.46875 8.3125 3.46875C10.3184 3.46875 11.9688 5.11914 11.9688 7.125V7.15039C11.9688 9.15625 10.3184 10.8066 8.3125 10.8066V10.7812ZM8.3125 4.6875C8.08398 4.71289 7.85547 4.73828 7.65234 4.78906C7.80469 4.99219 7.88086 5.24609 7.88086 5.52539C7.88086 6.18555 7.34766 6.71875 6.6875 6.71875C6.4082 6.71875 6.1543 6.64258 5.95117 6.49023C5.90039 6.69336 5.875 6.92188 5.875 7.125C5.875 8.4707 6.9668 9.5625 8.3125 9.5625C9.6582 9.5625 10.75 8.4707 10.75 7.125C10.75 5.7793 9.6582 4.71289 8.3125 4.71289V4.6875Z" fill="#626262"/>
<path d="M15 1L2 14" stroke="white"/>
<path d="M14 1L1 14" stroke="#626262"/>
</svg>
