<svg width="42" height="42" viewBox="0 0 42 42" fill="none" xmlns="http://www.w3.org/2000/svg">
<path d="M20.9995 41C9.95401 41 1 32.0462 1 21.0006C1 9.95379 9.95401 1 20.9995 1C32.0451 1 41 9.95379 41 21.0006C41 32.0462 32.0451 41 20.9995 41V41Z" stroke="black" stroke-width="2" stroke-miterlimit="10"/>
<rect x="12.4287" y="12.4286" width="17.1429" height="17.1429" rx="4" fill="black"/>
<circle cx="21" cy="21" r="3.5" stroke="white"/>
<path d="M27.2857 15.8571C27.2857 16.4878 26.7748 16.9999 26.1427 16.9999C25.5122 16.9999 25 16.4881 25 15.8571C25 15.2256 25.512 14.7142 26.1427 14.7142C26.7745 14.7142 27.2857 15.2254 27.2857 15.8571Z" fill="white"/>
</svg>
