<svg width="37" height="37" viewBox="0 0 37 37" fill="none" xmlns="http://www.w3.org/2000/svg">
<path d="M18.5004 36C8.83555 36 1 28.1654 1 18.5005C1 8.83456 8.83555 1 18.5004 1C28.1652 1 36 8.83456 36 18.5005C36 28.1654 28.1652 36 18.5004 36Z" stroke="black" stroke-width="2" stroke-miterlimit="10"/>
<path d="M9.00028 24.298C10.7252 25.3728 12.7744 26 14.9753 26C22.2121 26 26.301 20.0617 26.0558 14.7354C26.8167 14.202 27.478 13.5349 28 12.7748C27.3011 13.0762 26.5495 13.2799 25.7615 13.3711C26.5664 12.9034 27.1839 12.1613 27.4753 11.2758C26.7218 11.7101 25.8871 12.0259 25.0008 12.1951C24.2887 11.4595 23.2759 11 22.1541 11C19.6382 11 17.7889 13.2799 18.3576 15.6492C15.1177 15.4918 12.245 13.9836 10.323 11.6926C9.30173 13.3945 9.79277 15.6219 11.5289 16.7485C10.8899 16.7286 10.2886 16.5576 9.7628 16.2743C9.72065 18.0293 11.0145 19.6694 12.8895 20.0352C12.3402 20.181 11.7396 20.2137 11.1298 20.0998C11.6243 21.6053 13.0645 22.6994 14.7709 22.7303C13.1318 23.9782 11.068 24.5353 9 24.2978L9.00028 24.298Z" fill="black"/>
</svg>
